<svg xmlns="http://www.w3.org/2000/svg" xmlns:xlink="http://www.w3.org/1999/xlink" width="33" height="33" viewBox="0 0 33 33">
  <defs>
    <clipPath id="clip-iPhone_XR_XS_Max_11_3">
      <rect width="33" height="33"/>
    </clipPath>
  </defs>
  <g id="iPhone_XR_XS_Max_11_3" data-name="iPhone XR, XS Max, 11 – 3" clip-path="url(#clip-iPhone_XR_XS_Max_11_3)">
    <rect width="33" height="33" fill="#fff"/>
    <g id="linkedin" transform="translate(0)">
      <circle id="Ellipse_2" data-name="Ellipse 2" cx="16.5" cy="16.5" r="16.5" transform="translate(0 0)" fill="#007ab9"/>
      <g id="Group_3" data-name="Group 3" transform="translate(7.961 7.05)">
        <path id="Path_2" data-name="Path 2" d="M45.465,34.746v6.8H41.521V35.2c0-1.594-.569-2.682-2-2.682A2.157,2.157,0,0,0,37.5,33.963a2.7,2.7,0,0,0-.131.961v6.625H33.426s.053-10.749,0-11.862H37.37v1.681c-.008.013-.019.026-.026.039h.026v-.039a3.916,3.916,0,0,1,3.555-1.96c2.595,0,4.54,1.7,4.54,5.338ZM29.3,23.969a2.055,2.055,0,1,0-.052,4.1h.026a2.056,2.056,0,1,0,.026-4.1Zm-2,17.58h3.943V29.687H27.3Z" transform="translate(-27.068 -23.969)" fill="#f1f2f2"/>
      </g>
    </g>
  </g>
</svg>
