<svg xmlns="http://www.w3.org/2000/svg" width="512" height="455.516" viewBox="0 0 512 455.516">
  <path id="heart" d="M256,455.516a30.024,30.024,0,0,1-19.793-7.437C215.523,429.993,195.582,413,177.988,398l-.09-.078c-51.582-43.957-96.125-81.918-127.117-119.313C16.137,236.808,0,197.172,0,153.871,0,111.8,14.426,72.988,40.617,44.578,67.121,15.832,103.488,0,143.031,0c29.555,0,56.621,9.344,80.445,27.77A164.587,164.587,0,0,1,256,61.73,164.6,164.6,0,0,1,288.527,27.77C312.351,9.344,339.418,0,368.973,0c39.539,0,75.91,15.832,102.414,44.578C497.578,72.988,512,111.8,512,153.871c0,43.3-16.133,82.938-50.777,124.738-30.992,37.4-75.531,75.355-127.105,119.309-17.625,15.016-37.6,32.039-58.328,50.168A30.046,30.046,0,0,1,256,455.516ZM143.031,29.993c-31.066,0-59.605,12.4-80.367,34.914-21.07,22.855-32.676,54.449-32.676,88.965,0,36.418,13.535,68.988,43.883,105.605C103.2,294.871,146.832,332.051,197.348,375.1l.094.078c17.66,15.051,37.68,32.113,58.516,50.332,20.961-18.254,41.012-35.344,58.707-50.418,50.512-43.051,94.137-80.223,123.469-115.617,30.344-36.617,43.879-69.187,43.879-105.605,0-34.516-11.605-66.109-32.676-88.965-20.758-22.516-49.3-34.914-80.363-34.914-22.758,0-43.652,7.234-62.1,21.5-16.441,12.719-27.895,28.8-34.609,40.047a18.931,18.931,0,0,1-32.523,0c-6.711-11.25-18.164-27.328-34.609-40.047-18.449-14.266-39.344-21.5-62.1-21.5Zm0,0" transform="translate(0 0)" fill="#fff"/>
</svg>
